<svg width="128" height="16" viewBox="0 0 128 16" fill="none" xmlns="http://www.w3.org/2000/svg">
<path d="M108.719 0.633132L115.219 2.80898L115.183 3.06248L110.653 7.41419C109.573 7.44135 108.619 6.8076 107.578 6.52393C105.686 5.86604 103.733 5.34999 101.932 4.55932C103.428 3.01118 104.949 1.51434 106.582 0.0174953C107.445 -0.115289 107.94 0.548633 108.716 0.633132H108.719Z" fill="#2389CB"/>
<path d="M88.961 0.0869141C89.0938 0.630123 88.3665 1.18238 88.6441 1.68334H97.5467C97.088 2.72148 96.5086 3.73245 96.0499 4.77963H86.6946C86.2902 5.06934 86.426 5.51296 86.1997 5.8238L81.4436 15.2575H72.4988C74.1737 11.7448 76.0236 8.31049 77.792 4.86413L77.608 4.6891H67.5254L68.9739 1.84932L69.3844 1.68636H79.3251C79.7204 1.1854 79.8683 0.512428 80.3361 0.0899319H88.964L88.961 0.0869141Z" fill="#2389CB"/>
<path d="M48.9913 0.545368C47.1897 4.05812 45.4574 7.6614 43.523 11.1168C43.523 11.2858 43.4747 11.4548 43.7071 11.5695C49.0487 11.2436 54.3359 10.7215 59.6774 10.3684C59.436 11.5272 58.6182 12.7132 58.0388 13.8721C49.7639 14.8348 41.6308 15.1667 33.1719 15.9997C34.72 12.7132 36.4704 9.49322 38.0608 6.17663C38.9088 4.18487 40.0887 2.22026 41.1691 0.346191H48.9913V0.54235V0.545368Z" fill="#2389CB"/>
<path d="M29.5023 0.45459C28.9379 1.68285 28.3796 2.93524 27.6946 4.09409L21.7314 4.18462C20.5152 6.69244 19.299 9.19421 18.0798 11.702L18.2639 11.865H28.784C28.2529 13.1144 27.5678 14.4241 26.7983 15.5528H0C0.522084 14.3306 1.1166 13.1566 1.84389 11.9917L11.3832 11.865C12.874 9.56239 13.6436 6.98215 15.1284 4.68558V4.22687L8.02742 4.18462C8.58571 2.89299 9.24964 1.68285 9.94374 0.45459H29.5023Z" fill="#2389CB"/>
<path d="M127.976 4.22705C127.17 6.11319 126.174 7.92992 125.257 9.73157C117.483 13.5823 108.749 16.0992 99.2734 15.4262V14.9584L101.117 11.334C104.425 11.497 108.028 11.4547 111.158 10.7486C117.163 9.34227 122.598 7.11511 127.976 4.22705Z" fill="#2389CB"/>
<path d="M93.6121 8.00906L90.036 15.2579H83.8887C85.1109 12.5781 86.3754 9.90124 87.8239 7.41455H93.6121V8.00906Z" fill="#2389CB"/>
<path d="M73.5389 7.58651C72.549 10.1939 71.0582 12.6233 69.7877 15.1673L63.4141 15.2578C64.4099 12.578 66.1211 10.1909 67.1652 7.5835H73.5389V7.58651Z" fill="#2389CB"/>
</svg>
