<svg width="131" height="18" viewBox="0 0 131 18" fill="none" xmlns="http://www.w3.org/2000/svg">
<path d="M0.53125 0.726562C1.17188 0.726562 2.46094 0.726562 4.39844 0.726562C4.83594 2.80469 5.70312 6.97656 7 13.2422C7.4375 11.1641 8.30469 6.99219 9.60156 0.726562C10.2422 0.726562 11.5312 0.726562 13.4688 0.726562C12.6875 3.60156 11.1094 9.35938 8.73438 18C8.15625 18 7 18 5.26562 18C4.48438 15.125 2.90625 9.36719 0.53125 0.726562ZM16.4453 0.726562C17.0234 0.726562 18.1719 0.726562 19.8906 0.726562C19.8906 2.88281 19.8906 7.20312 19.8906 13.6875C19.8906 14.4062 19.8906 15.8438 19.8906 18C19.3281 18 18.1797 18 16.4453 18C16.4453 16.5625 16.4453 14.4062 16.4453 11.5312C16.4453 8.65625 16.4453 5.05469 16.4453 0.726562ZM33.7188 4.17188C30.6562 4.17188 28.3516 4.17188 26.8047 4.17188C26.8047 5.70313 26.8047 6.85938 26.8047 7.64062C29.1172 7.64062 30.8516 7.64062 32.0078 7.64062C32.0078 9.17188 32.0078 10.3203 32.0078 11.0859C29.6953 11.0859 27.9609 11.0859 26.8047 11.0859C26.8047 12.6172 26.8047 13.7734 26.8047 14.5547C29.8828 14.5547 32.1875 14.5547 33.7188 14.5547C33.7188 16.0859 33.7188 17.2344 33.7188 18C30.6562 18 28.3516 18 26.8047 18C25.2734 18 24.125 18 23.3594 18C23.3594 17.2344 23.3594 16.5625 23.3594 15.9844C23.3594 15.4062 23.3594 14.9297 23.3594 14.5547C23.3594 12.8203 23.3594 11.6641 23.3594 11.0859C23.3594 9.35156 23.3594 8.20312 23.3594 7.64062C23.3594 5.90625 23.3594 4.75 23.3594 4.17188C23.3594 2.45312 23.3594 1.30469 23.3594 0.726562C25.0938 0.726562 26.2422 0.726562 26.8047 0.726562C30.2734 0.726562 32.5781 0.726562 33.7188 0.726562C33.7188 2.44531 33.7188 3.59375 33.7188 4.17188ZM37.1875 16.2656C37.1875 14.5469 37.1875 12.3906 37.1875 9.79688C37.1875 7.20312 37.1875 4.17969 37.1875 0.726562C37.9531 0.726562 39.1016 0.726562 40.6328 0.726562C40.6328 3.78906 40.6328 8.39844 40.6328 14.5547C41.4141 14.5547 42.5703 14.5547 44.1016 14.5547C44.1016 11.4766 44.1016 6.86719 44.1016 0.726562C44.8672 0.726562 46.0156 0.726562 47.5469 0.726562C47.5469 3.78906 47.5469 8.39844 47.5469 14.5547C48.3281 14.5547 49.4844 14.5547 51.0156 14.5547C51.0156 11.4766 51.0156 6.86719 51.0156 0.726562C51.7812 0.726562 52.9297 0.726562 54.4609 0.726562C54.4609 4.17969 54.4609 9.35938 54.4609 16.2656C54.4609 16.75 54.2969 17.1562 53.9688 17.4844C53.625 17.8281 53.2188 18 52.75 18C51.5938 18 49.8594 18 47.5469 18C47.0781 18 46.6719 17.8281 46.3281 17.4844C46 17.1562 45.8359 16.75 45.8359 16.2656C45.8359 16.75 45.6641 17.1562 45.3203 17.4844C44.9922 17.8281 44.5859 18 44.1016 18C42.9453 18 41.2188 18 38.9219 18C38.4375 18 38.0312 17.8281 37.7031 17.4844C37.3594 17.1562 37.1875 16.75 37.1875 16.2656ZM89.0312 2.4375C89.0312 5.90625 89.0312 11.0938 89.0312 18C88.2656 18 87.1172 18 85.5859 18C85.5859 14.9219 85.5859 10.3125 85.5859 4.17188C84.8203 4.17188 83.6641 4.17188 82.1172 4.17188C82.1172 7.25 82.1172 11.8594 82.1172 18C81.3516 18 80.2031 18 78.6719 18C78.6719 14.9219 78.6719 10.3125 78.6719 4.17188C77.9062 4.17188 76.75 4.17188 75.2031 4.17188C75.2031 7.25 75.2031 11.8594 75.2031 18C74.4375 18 73.2891 18 71.7578 18C71.7578 16.7031 71.7578 14.75 71.7578 12.1406C71.7578 11.0625 71.7578 9.71875 71.7578 8.10938C71.7578 6.48438 71.7578 4.59375 71.7578 2.4375C71.7578 1.96875 71.9297 1.5625 72.2734 1.21875C72.6016 0.890625 73.0078 0.726562 73.4922 0.726562C74.6328 0.726562 76.3594 0.726562 78.6719 0.726562C79.1562 0.726562 79.5625 0.890625 79.8906 1.21875C80.2344 1.5625 80.4062 1.96875 80.4062 2.4375C80.4062 1.96875 80.5703 1.5625 80.8984 1.21875C81.2422 0.890625 81.6484 0.726562 82.1172 0.726562C83.2734 0.726562 85.0078 0.726562 87.3203 0.726562C87.7891 0.726562 88.1953 0.890625 88.5391 1.21875C88.8672 1.5625 89.0312 1.96875 89.0312 2.4375ZM102.859 2.4375C102.859 5.51563 102.859 10.125 102.859 16.2656C102.859 16.75 102.695 17.1562 102.367 17.4844C102.023 17.8281 101.617 18 101.148 18C99.6016 18 97.2969 18 94.2344 18C93.75 18 93.3438 17.8281 93.0156 17.4844C92.6719 17.1562 92.5 16.75 92.5 16.2656C92.5 15.1094 92.5 13.375 92.5 11.0625C92.5 10.1094 92.5 8.92188 92.5 7.5C92.5 6.04688 92.5 4.35938 92.5 2.4375C92.5 1.96875 92.6719 1.5625 93.0156 1.21875C93.3438 0.890625 93.75 0.726562 94.2344 0.726562C95.7656 0.726562 98.0703 0.726562 101.148 0.726562C101.617 0.726562 102.023 0.890625 102.367 1.21875C102.695 1.5625 102.859 1.96875 102.859 2.4375ZM95.9453 14.5547C96.7266 14.5547 97.8828 14.5547 99.4141 14.5547C99.4141 14.3984 99.4141 14.1719 99.4141 13.875C99.4141 11.7188 99.4141 8.48438 99.4141 4.17188C98.6484 4.17188 97.4922 4.17188 95.9453 4.17188C95.9453 5.32813 95.9453 7.05469 95.9453 9.35156C95.9453 10.5078 95.9453 12.2422 95.9453 14.5547ZM114.977 9.35156C115.445 9.35156 115.852 9.52344 116.195 9.86719C116.523 10.1953 116.688 10.6016 116.688 11.0859C116.688 12.6172 116.688 14.9219 116.688 18C115.922 18 114.773 18 113.242 18C113.242 16.4688 113.242 14.1641 113.242 11.0859C112.477 11.0859 111.32 11.0859 109.773 11.0859C109.773 12.6172 109.773 14.9219 109.773 18C109.008 18 107.859 18 106.328 18C106.328 16.4688 106.328 14.1641 106.328 11.0859C106.328 10.3203 106.328 9.17188 106.328 7.64062C106.328 6.875 106.328 5.91406 106.328 4.75781C106.328 3.60156 106.328 2.25781 106.328 0.726562C107.094 0.726562 108.242 0.726562 109.773 0.726562C110.93 0.726562 112.664 0.726562 114.977 0.726562C115.445 0.726562 115.852 0.890625 116.195 1.21875C116.523 1.5625 116.688 1.96875 116.688 2.4375C116.688 3.59375 116.688 5.32813 116.688 7.64062C116.688 8.10938 116.523 8.51562 116.195 8.85938C115.852 9.1875 115.445 9.35156 114.977 9.35156ZM113.242 7.64062C113.242 7.5 113.242 7.29688 113.242 7.03125C113.242 6.39062 113.242 5.4375 113.242 4.17188C112.477 4.17188 111.32 4.17188 109.773 4.17188C109.773 4.9375 109.773 6.09375 109.773 7.64062C110.555 7.64062 111.711 7.64062 113.242 7.64062ZM130.516 4.17188C127.453 4.17188 125.148 4.17188 123.602 4.17188C123.602 5.70313 123.602 6.85938 123.602 7.64062C125.914 7.64062 127.648 7.64062 128.805 7.64062C128.805 9.17188 128.805 10.3203 128.805 11.0859C126.492 11.0859 124.758 11.0859 123.602 11.0859C123.602 12.6172 123.602 13.7734 123.602 14.5547C126.68 14.5547 128.984 14.5547 130.516 14.5547C130.516 16.0859 130.516 17.2344 130.516 18C127.453 18 125.148 18 123.602 18C122.07 18 120.922 18 120.156 18C120.156 17.2344 120.156 16.5625 120.156 15.9844C120.156 15.4062 120.156 14.9297 120.156 14.5547C120.156 12.8203 120.156 11.6641 120.156 11.0859C120.156 9.35156 120.156 8.20312 120.156 7.64062C120.156 5.90625 120.156 4.75 120.156 4.17188C120.156 2.45312 120.156 1.30469 120.156 0.726562C121.891 0.726562 123.039 0.726562 123.602 0.726562C127.07 0.726562 129.375 0.726562 130.516 0.726562C130.516 2.44531 130.516 3.59375 130.516 4.17188Z" fill="#2389CB"/>
</svg>
