<?xml version="1.0" encoding="UTF-8"?>
<svg id="_レイヤー_2" data-name="レイヤー 2" xmlns="http://www.w3.org/2000/svg" viewBox="0 0 60 60">
  <defs>
    <style>
      .cls-1 {
        fill: #fff;
      }

      .cls-1, .cls-2, .cls-3 {
        stroke-width: 0px;
      }

      .cls-1, .cls-3 {
        fill-rule: evenodd;
      }

      .cls-2, .cls-3 {
        fill: #2389cb;
      }
    </style>
  </defs>
  <g id="_レイヤー_1-2" data-name="レイヤー 1">
    <g>
      <path class="cls-1" d="M56,60l-12.47-3.22c-4.07,2.06-8.66,3.22-13.53,3.22C13.43,60,0,46.57,0,30S13.43,0,30,0s30,13.43,30,30c0,7.27-2.59,13.94-6.9,19.14l2.9,10.86Z"/>
      <path class="cls-3" d="M50.91,48.66l.66-.79c4.02-4.85,6.44-11.07,6.44-17.86,0-15.46-12.54-28-28-28S2,14.54,2,30s12.54,28,28,28c4.55,0,8.84-1.08,12.63-3l.67-.34,9.88,2.55-2.28-8.55ZM56,60l-12.47-3.22c-4.07,2.06-8.66,3.22-13.53,3.22C13.43,60,0,46.57,0,30S13.43,0,30,0s30,13.43,30,30c0,7.27-2.59,13.94-6.9,19.14l2.9,10.86Z"/>
      <path class="cls-2" d="M37.35,43.84c.42.68,1.03,1.69,1.84,3.05h-6.72c-.36-.65-.94-1.61-1.72-2.89h-5.86c-.81,0-1.48-.29-2.03-.86-.57-.55-.86-1.22-.86-2.03v-23.05c0-.78.29-1.46.86-2.03.55-.55,1.22-.82,2.03-.82h11.52c.78,0,1.46.27,2.03.82.55.57.82,1.25.82,2.03v23.05c0,.62-.17,1.18-.51,1.68-.36.49-.83.85-1.41,1.05ZM27.74,38.26h5.78v-17.3h-5.78v17.3Z"/>
    </g>
  </g>
</svg>