<svg viewBox="0 0 32 32" fill="none" xmlns="http://www.w3.org/2000/svg">
<rect width="32" height="32" rx="16" fill="#2389CB"/>
<path d="M20.3711 23.5C19.7331 23.5 18.776 23.5 17.5 23.5C17.5 22.224 17.5 20.3034 17.5 17.7383C16.862 17.7383 15.8984 17.7383 14.6094 17.7383C14.6094 19.0143 14.6094 20.9349 14.6094 23.5C13.9714 23.5 13.0143 23.5 11.7383 23.5C11.7383 22.4193 11.7383 20.7917 11.7383 18.6172C11.7383 17.7188 11.7383 16.599 11.7383 15.2578C11.7383 13.9036 11.7383 12.3281 11.7383 10.5312C11.7383 10.1406 11.8815 9.80208 12.168 9.51562C12.4414 9.24219 12.7799 9.10547 13.1836 9.10547C14.4596 9.10547 16.3802 9.10547 18.9453 9.10547C19.3359 9.10547 19.6745 9.24219 19.9609 9.51562C20.2344 9.80208 20.3711 10.1406 20.3711 10.5312C20.3711 13.4219 20.3711 17.7448 20.3711 23.5ZM17.5 14.8672C17.5 14.75 17.5 14.5807 17.5 14.3594C17.5 13.8255 17.5 13.0312 17.5 11.9766C16.862 11.9766 15.8984 11.9766 14.6094 11.9766C14.6094 12.6146 14.6094 13.5781 14.6094 14.8672C15.2604 14.8672 16.224 14.8672 17.5 14.8672Z" fill="white"/>
</svg>
